<?xml version="1.0" encoding="iso-8859-1"?>
<!-- Uploaded to: SVG Repo, www.svgrepo.com, Generator: SVG Repo Mixer Tools -->
<svg fill="#000000" height="800px" width="800px" version="1.1" id="Layer_1" xmlns="http://www.w3.org/2000/svg" xmlns:xlink="http://www.w3.org/1999/xlink" 
	 viewBox="0 0 491.52 491.52" xml:space="preserve">
<g>
	<g>
		<g>
			<path d="M122.88,409.6H69.923l5.998-5.998c7.998-7.998,7.998-20.965,0-28.963c-7.998-7.998-20.965-7.998-28.963,0l-40.96,40.96
				c-0.004,0.004-0.007,0.008-0.011,0.012c-0.473,0.473-0.921,0.971-1.346,1.489c-0.195,0.238-0.365,0.488-0.548,0.733
				c-0.217,0.29-0.442,0.574-0.644,0.876c-0.195,0.292-0.364,0.595-0.543,0.894c-0.164,0.274-0.336,0.543-0.488,0.825
				c-0.163,0.305-0.301,0.619-0.448,0.93c-0.139,0.294-0.286,0.583-0.411,0.885c-0.125,0.303-0.227,0.613-0.337,0.92
				c-0.116,0.323-0.24,0.642-0.34,0.972c-0.093,0.307-0.161,0.619-0.239,0.929c-0.085,0.337-0.179,0.67-0.248,1.014
				c-0.071,0.359-0.113,0.721-0.165,1.083c-0.043,0.3-0.1,0.595-0.13,0.898c-0.132,1.344-0.132,2.698,0,4.042
				c0.03,0.304,0.087,0.599,0.13,0.898c0.052,0.361,0.094,0.724,0.165,1.083c0.068,0.344,0.162,0.677,0.248,1.014
				c0.078,0.31,0.146,0.622,0.239,0.929c0.1,0.33,0.224,0.649,0.34,0.972c0.11,0.308,0.211,0.617,0.337,0.92
				c0.125,0.301,0.272,0.59,0.41,0.884c0.147,0.312,0.285,0.626,0.449,0.931c0.151,0.282,0.323,0.55,0.487,0.824
				c0.179,0.3,0.348,0.603,0.544,0.895c0.202,0.301,0.426,0.585,0.643,0.874c0.183,0.245,0.354,0.496,0.549,0.735
				c0.422,0.514,0.867,1.007,1.335,1.477c0.007,0.007,0.013,0.016,0.021,0.023l40.96,40.96c7.998,7.998,20.965,7.998,28.963,0
				c7.998-7.998,7.998-20.965,0-28.963l-5.998-5.998h52.957c11.311,0,20.48-9.169,20.48-20.48S134.191,409.6,122.88,409.6z"/>
			<path d="M368.64,81.92h52.957l-5.998,5.998c-7.998,7.998-7.998,20.965,0,28.963c7.998,7.998,20.965,7.998,28.963,0l40.96-40.96
				c0.004-0.004,0.006-0.008,0.01-0.011c0.473-0.474,0.921-0.971,1.346-1.489c0.196-0.238,0.366-0.49,0.549-0.735
				c0.217-0.29,0.441-0.573,0.643-0.874c0.196-0.292,0.365-0.596,0.544-0.896c0.163-0.273,0.335-0.541,0.486-0.822
				c0.164-0.306,0.302-0.62,0.449-0.932c0.139-0.294,0.285-0.582,0.41-0.883c0.125-0.303,0.227-0.613,0.337-0.921
				c0.116-0.323,0.24-0.642,0.34-0.972c0.093-0.307,0.161-0.62,0.239-0.93c0.085-0.337,0.179-0.67,0.247-1.013
				c0.071-0.359,0.113-0.721,0.165-1.083c0.043-0.3,0.1-0.595,0.13-0.898c0.132-1.344,0.133-2.698,0-4.042
				c-0.03-0.304-0.087-0.599-0.13-0.9c-0.052-0.361-0.094-0.723-0.165-1.081c-0.068-0.344-0.163-0.677-0.248-1.015
				c-0.078-0.31-0.146-0.622-0.239-0.929c-0.1-0.331-0.224-0.65-0.34-0.973c-0.11-0.307-0.211-0.616-0.336-0.919
				c-0.125-0.302-0.272-0.591-0.411-0.885c-0.147-0.311-0.285-0.625-0.448-0.93c-0.151-0.282-0.324-0.551-0.487-0.825
				c-0.179-0.299-0.348-0.602-0.543-0.894c-0.202-0.303-0.428-0.587-0.646-0.878c-0.183-0.244-0.352-0.494-0.547-0.731
				c-0.428-0.522-0.88-1.024-1.357-1.501L444.562,5.998c-7.998-7.998-20.965-7.998-28.963,0c-7.998,7.998-7.998,20.965,0,28.963
				l5.998,5.998H368.64c-11.311,0-20.48,9.169-20.48,20.48S357.329,81.92,368.64,81.92z"/>
			<path d="M245.76,122.88C108.58,122.88,0,152.491,0,204.8v81.92c0,52.309,108.58,81.92,245.76,81.92s245.76-29.611,245.76-81.92
				V204.8C491.52,152.491,382.94,122.88,245.76,122.88z M450.56,286.72c0,15.56-93.139,40.96-204.8,40.96s-204.8-25.4-204.8-40.96
				v-33.322c0.091,0.045,0.187,0.088,0.278,0.133c1.251,0.615,2.523,1.224,3.823,1.823c0.209,0.096,0.427,0.19,0.637,0.286
				c1.104,0.503,2.224,1.001,3.362,1.492c0.446,0.192,0.899,0.382,1.35,0.573c0.945,0.399,1.9,0.795,2.867,1.187
				c0.481,0.195,0.963,0.389,1.45,0.582c1.05,0.416,2.116,0.826,3.193,1.233c0.387,0.146,0.767,0.295,1.157,0.44
				c1.464,0.544,2.949,1.081,4.458,1.608c0.293,0.102,0.594,0.201,0.888,0.303c1.231,0.425,2.474,0.845,3.735,1.259
				c0.52,0.171,1.046,0.339,1.57,0.508c1.082,0.348,2.174,0.693,3.277,1.033c0.547,0.169,1.094,0.338,1.646,0.505
				c1.218,0.368,2.451,0.73,3.694,1.089c0.417,0.12,0.827,0.243,1.247,0.362c1.656,0.47,3.333,0.933,5.031,1.386
				c0.378,0.101,0.765,0.199,1.146,0.299c1.338,0.352,2.686,0.701,4.05,1.043c0.589,0.148,1.183,0.293,1.777,0.439
				c1.209,0.297,2.427,0.59,3.654,0.879c0.605,0.142,1.208,0.285,1.817,0.425c1.389,0.32,2.793,0.634,4.206,0.943
				c0.424,0.093,0.842,0.188,1.268,0.28c1.833,0.396,3.686,0.783,5.556,1.162c0.46,0.093,0.928,0.183,1.391,0.275
				c1.431,0.285,2.871,0.566,4.324,0.841c0.653,0.124,1.311,0.245,1.969,0.367c1.322,0.245,2.653,0.485,3.993,0.721
				c0.656,0.116,1.311,0.232,1.97,0.346c1.567,0.27,3.147,0.534,4.737,0.793c0.405,0.066,0.805,0.135,1.211,0.2
				c1.994,0.32,4.006,0.63,6.034,0.933c0.533,0.079,1.073,0.155,1.608,0.233c1.519,0.222,3.045,0.44,4.583,0.653
				c0.705,0.097,1.413,0.193,2.121,0.288c1.436,0.193,2.88,0.381,4.331,0.566c0.69,0.088,1.378,0.176,2.072,0.262
				c1.757,0.217,3.525,0.428,5.304,0.633c0.36,0.041,0.715,0.085,1.075,0.126c2.138,0.242,4.292,0.475,6.459,0.699
				c0.602,0.062,1.211,0.121,1.816,0.182c1.586,0.16,3.178,0.316,4.779,0.467c0.764,0.072,1.53,0.142,2.297,0.211
				c1.524,0.138,3.056,0.271,4.594,0.401c0.727,0.061,1.452,0.124,2.182,0.183c1.936,0.157,3.883,0.308,5.839,0.451
				c0.307,0.023,0.61,0.047,0.918,0.07c2.26,0.163,4.535,0.315,6.821,0.46c0.661,0.042,1.327,0.08,1.99,0.12
				c1.655,0.101,3.315,0.197,4.982,0.288c0.799,0.044,1.6,0.086,2.402,0.127c1.619,0.084,3.245,0.162,4.876,0.237
				c0.746,0.034,1.49,0.07,2.238,0.102c2.173,0.094,4.355,0.18,6.548,0.258c0.176,0.006,0.35,0.014,0.526,0.02
				c2.367,0.082,4.749,0.153,7.138,0.217c0.723,0.019,1.45,0.035,2.175,0.052c1.7,0.041,3.405,0.078,5.116,0.11
				c0.839,0.016,1.678,0.03,2.519,0.043c1.698,0.027,3.401,0.048,5.109,0.065c0.757,0.008,1.512,0.017,2.271,0.023
				c2.44,0.019,4.887,0.031,7.346,0.031s4.906-0.012,7.346-0.031c0.759-0.006,1.514-0.016,2.271-0.023
				c1.708-0.017,3.411-0.039,5.109-0.065c0.841-0.013,1.681-0.028,2.519-0.043c1.711-0.032,3.415-0.069,5.116-0.11
				c0.725-0.018,1.452-0.033,2.175-0.052c2.39-0.064,4.771-0.134,7.138-0.217c0.175-0.006,0.348-0.014,0.523-0.02
				c2.194-0.078,4.376-0.164,6.55-0.258c0.748-0.032,1.491-0.068,2.236-0.102c1.632-0.075,3.258-0.153,4.878-0.237
				c0.802-0.041,1.603-0.083,2.402-0.127c1.668-0.091,3.328-0.188,4.983-0.288c0.663-0.04,1.329-0.078,1.99-0.12
				c2.286-0.145,4.561-0.297,6.82-0.46c0.308-0.022,0.613-0.047,0.921-0.07c1.956-0.143,3.901-0.294,5.836-0.451
				c0.73-0.059,1.455-0.122,2.182-0.183c1.538-0.13,3.069-0.263,4.594-0.401c0.767-0.07,1.533-0.139,2.297-0.211
				c1.602-0.15,3.193-0.307,4.78-0.467c0.605-0.061,1.213-0.12,1.815-0.182c2.167-0.224,4.322-0.457,6.46-0.699
				c0.361-0.041,0.716-0.085,1.075-0.126c1.778-0.205,3.547-0.415,5.304-0.633c0.694-0.086,1.382-0.174,2.072-0.262
				c1.451-0.184,2.895-0.373,4.331-0.566c0.708-0.095,1.417-0.19,2.121-0.288c1.538-0.212,3.065-0.431,4.585-0.653
				c0.534-0.078,1.073-0.154,1.605-0.233c2.028-0.302,4.04-0.613,6.034-0.933c0.408-0.065,0.809-0.134,1.216-0.201
				c1.588-0.259,3.167-0.522,4.733-0.792c0.66-0.114,1.315-0.23,1.971-0.346c1.34-0.236,2.671-0.477,3.994-0.721
				c0.657-0.121,1.314-0.243,1.967-0.366c1.454-0.275,2.894-0.556,4.326-0.841c0.462-0.092,0.93-0.181,1.389-0.274
				c1.871-0.379,3.724-0.766,5.557-1.162c0.425-0.092,0.843-0.187,1.266-0.28c1.414-0.31,2.818-0.624,4.208-0.944
				c0.608-0.14,1.211-0.282,1.815-0.425c1.228-0.289,2.446-0.582,3.655-0.879c0.593-0.146,1.188-0.291,1.777-0.439
				c1.364-0.342,2.714-0.691,4.053-1.044c0.379-0.1,0.764-0.197,1.141-0.298c1.698-0.454,3.375-0.916,5.032-1.386
				c0.42-0.119,0.83-0.242,1.247-0.362c1.243-0.358,2.476-0.721,3.694-1.089c0.552-0.167,1.099-0.336,1.646-0.505
				c1.103-0.34,2.195-0.685,3.277-1.033c0.525-0.169,1.051-0.337,1.57-0.508c1.26-0.414,2.504-0.834,3.735-1.259
				c0.294-0.102,0.596-0.201,0.888-0.303c1.51-0.528,2.995-1.064,4.458-1.608c0.39-0.145,0.77-0.294,1.157-0.44
				c1.076-0.407,2.142-0.817,3.193-1.233c0.487-0.193,0.969-0.387,1.45-0.582c0.968-0.391,1.923-0.787,2.867-1.187
				c0.451-0.191,0.905-0.38,1.35-0.573c1.138-0.491,2.258-0.989,3.362-1.492c0.21-0.096,0.428-0.189,0.637-0.286
				c1.301-0.599,2.573-1.208,3.824-1.823c0.091-0.045,0.187-0.088,0.277-0.132V286.72z M245.76,245.76
				c-111.661,0-204.8-25.4-204.8-40.96c0-15.56,93.139-40.96,204.8-40.96s204.8,25.4,204.8,40.96
				C450.56,220.36,357.421,245.76,245.76,245.76z"/>
		</g>
	</g>
</g>
</svg>